<?xml version="1.0" encoding="iso-8859-1"?>
<!-- Generator: Adobe Illustrator 19.0.0, SVG Export Plug-In . SVG Version: 6.00 Build 0)  -->
<svg version="1.1" id="Layer_1" xmlns="http://www.w3.org/2000/svg" xmlns:xlink="http://www.w3.org/1999/xlink" x="0px" y="0px"
	 viewBox="0 0 512 512" style="enable-background:new 0 0 512 512;" xml:space="preserve">
<g>
	<g>
		<path d="M0,0v512h512V0H0z M490.656,256v234.672H256H21.336V256V21.328H256h234.656V256z"/>
	</g>
</g>
<g>
	<g>
		<path d="M256,21.328C126.398,21.328,21.336,126.391,21.336,256S126.398,490.672,256,490.672
			c129.594,0,234.656-105.062,234.656-234.672S385.594,21.328,256,21.328z M406.844,406.843
			c-19.594,19.609-42.406,34.984-67.812,45.734c-26.281,11.109-54.219,16.75-83.031,16.75s-56.742-5.641-83.031-16.75
			c-25.406-10.75-48.219-26.125-67.82-45.734c-19.594-19.594-34.984-42.406-45.727-67.812C48.305,312.75,42.664,284.812,42.664,256
			s5.641-56.75,16.758-83.031c10.742-25.406,26.133-48.219,45.727-67.812c19.602-19.609,42.414-34.984,67.82-45.734
			c26.289-11.125,54.219-16.75,83.031-16.75s56.75,5.625,83.031,16.75c25.406,10.75,48.219,26.125,67.812,45.734
			c19.594,19.594,35,42.406,45.734,67.812c11.111,26.281,16.767,54.219,16.767,83.031s-5.656,56.75-16.766,83.031
			C441.844,364.437,426.437,387.25,406.844,406.843z"/>
	</g>
</g>
<g>
</g>
<g>
</g>
<g>
</g>
<g>
</g>
<g>
</g>
<g>
</g>
<g>
</g>
<g>
</g>
<g>
</g>
<g>
</g>
<g>
</g>
<g>
</g>
<g>
</g>
<g>
</g>
<g>
</g>
</svg>
